# xmcd CD database file
#
# Track frame offsets:
#	150
#	30755
#	50352
#	64331
#	84484
#	108519
#	138322
#	164665
#	180464
#	189532
#	199662
#	209981
#	220999
#	230170
#	240117
#	252829
#	263617
#	276787
#
# Disc length: 3849 seconds
#
# Revision: 0
# Processed by: cddbd v1.5PL3 Copyright (c) Steve Scherf et al.
# Submitted via: CDex 1.51
#
DISCID=050f0712
DTITLE=Glen D Wright - Crystal Waters
DYEAR=1993
DGENRE=New Age
TTITLE0=Rebecca 
TTITLE1=Contempation 
TTITLE2=A Whisper 
TTITLE3=Shoreline 
TTITLE4=Fiona 
TTITLE5=Sands of Time 
TTITLE6=Tranquillity 
TTITLE7=Traveller 
TTITLE8=Crystal Water 
TTITLE9=Journey 
TTITLE10=Explorer 
TTITLE11=Valley Stream 
TTITLE12=Paradise 
TTITLE13=Gentle Winds 
TTITLE14=Mountain Brook 
TTITLE15=Scenica
TTITLE16=Panorama 
TTITLE17=Passages
EXTD=YEAR: 1993
EXTT0=
EXTT1=
EXTT2=
EXTT3=
EXTT4=
EXTT5=
EXTT6=
EXTT7=
EXTT8=
EXTT9=
EXTT10=
EXTT11=
EXTT12=
EXTT13=
EXTT14=
EXTT15=
EXTT16=
EXTT17=
PLAYORDER=
